<?xml version="1.0" encoding="UTF-8"?>
<svg width="90px" height="55px" viewBox="0 0 90 55" version="1.1" xmlns="http://www.w3.org/2000/svg" xmlns:xlink="http://www.w3.org/1999/xlink">
    <!-- Generator: Sketch 59.1 (86144) - https://sketch.com -->
    <title>wave</title>
    <desc>Created with Sketch.</desc>
    <g id="wave" stroke="none" stroke-width="1" fill="none" fill-rule="evenodd">
        <g id="noun_wave_51723-2" transform="translate(44.000000, 0.000000)" fill="#CCEFFF" fill-rule="nonzero">
            <path d="M41.446,54.087 C29.7977153,54.087 18.1494305,54.087 6.50114582,54.087 C3.18809746,54.0853093 0.502079475,51.400048 0.49945537,48.0870002 L0.488323311,8.5753281 C0.487612521,6.05405424 2.06321015,3.80130035 4.43175109,2.93710352 C9.63752374,1.03770117 14.1612734,0.088 18.003,0.088 C31.507,0.088 36.298,9.486 36.298,17.534 C36.298,23.784 31.22,28.87 24.98,28.87 C20.586,28.87 16.768,26.348 14.894,22.674 C13.806,24.132 12.983,26.495 12.99,29.222 C13.009,37.772 20.497,46.908 41.447,46.908 C43.426,46.908 45.031,48.515 45.031,50.497 C45.031,52.479 43.426,54.087 41.446,54.087 Z" id="Path"></path>
        </g>
        <path d="M31.3136103,54 C34.3530038,54.087 33.3136103,46.5905969 33.3136103,37.4506349 C33.3136103,28.3106729 34.4260976,21 31.3136103,21 C28.201123,21 29.3136103,28.3106729 29.3136103,37.4506349 C29.3136103,46.5905969 28.2742168,53.913 31.3136103,54 Z" id="Oval" fill="#CCEFFF"></path>
        <path d="M38.6588119,54 C42.260856,53.999 41.1588119,44.3453232 41.1588119,32.4356758 C41.1588119,20.5260284 42.2221593,11 38.6588119,11 C35.0954645,11 36.1588119,20.5260284 36.1588119,32.4356758 C36.1588119,44.3453232 35.0567678,54.001 38.6588119,54 Z" id="Oval" fill="#CCEFFF"></path>
        <path d="M25,54 C28.1400315,54.087 27,49.0603979 27,42.9670899 C27,36.873782 28.0612049,31.9124092 25,31.9124092 C21.9387951,31.9124092 23,36.873782 23,42.9670899 C23,49.0603979 21.8599685,53.913 25,54 Z" id="Oval" fill="#CCEFFF"></path>
        <path d="M19,54 C21,54 21,50.8690823 21,47.0068996 C21,43.1447169 21,40 19,40 C17,40 17,43.1447169 17,47.0068996 C17,50.8690823 17,54 19,54 Z" id="Oval" fill="#CCEFFF"></path>
        <path d="M13,54 C15,54 15,51.9872672 15,49.5044354 C15,47.0216037 15,45 13,45 C11,45 11,47.0216037 11,49.5044354 C11,51.9872672 11,54 13,54 Z" id="Oval" fill="#CCEFFF"></path>
        <path d="M7,54.0003646 C9,54.076462 9,52.435475 9,50.5050857 C9,48.5746965 9,47.0029097 7,47.0029097 C5,47.0029097 5,48.5746965 5,50.5050857 C5,52.435475 5,53.9242673 7,54.0003646 Z" id="Oval" fill="#CCEFFF"></path>
        <path d="M2,54.0006313 C4,54.0730857 4,52.8831497 4,51.5046663 C4,50.1261828 4,49.003776 2,49.003776 C0,49.003776 0,50.1261828 0,51.5046663 C0,52.8831497 0,53.9281769 2,54.0006313 Z" id="Oval" fill="#CCEFFF"></path>
    </g>
</svg>